C:\GBW_MyPrograms\KinderuniversiteitApp\Resultaten\smurf_test_midnight\model1_v1.mot
version=1
nRows=16
nColumns=31
inDegrees=yes
endheader
                time	         pelvis_tilt	           pelvis_tx	           pelvis_ty	       hip_flexion_r	        knee_angle_r	       ankle_angle_r	       hip_flexion_l	        knee_angle_l	       ankle_angle_l	    lumbar_extension	          arm_flex_r	          arm_flex_l	hamstrings_r/activation	bifemsh_r/activation	glut_max_r/activation	iliopsoas_r/activation	rect_fem_r/activation	  vasti_r/activation	gastroc_r/activation	 soleus_r/activation	tib_ant_r/activation	hamstrings_l/activation	bifemsh_l/activation	glut_max_l/activation	iliopsoas_l/activation	rect_fem_l/activation	  vasti_l/activation	gastroc_l/activation	 soleus_l/activation	tib_ant_l/activation	
          0.13832265	        -10.22110424	          0.18816626	          1.09900463	         13.98499619	        -30.40538916	          0.34523121	          0.33443431	         12.02592527	         -3.71556518	         -1.01654037	        -53.86642313	        -53.86642245	          0.62179209	          0.68641137	          0.40073818	          0.38154908	          0.17286335	          0.11160216	          0.56045955	          0.64173110	          0.14246715	          0.16292245	          0.39667359	          0.21120213	          0.61906798	          0.41443200	          0.47831025	          0.16445560	          0.58768527	          0.28887284	
          0.14108910	        -10.57845177	          0.18872518	          1.08951691	         16.11632840	        -32.38085973	          2.74265353	          9.23547549	        -27.34742361	          2.09274793	         -1.19797389	        -53.78712702	        -53.78712618	          0.64748270	          0.67173354	          0.45790974	          0.34029214	          0.17696329	          0.11286427	          0.57815926	          0.66595849	          0.09335879	          0.13927808	          0.35788681	          0.25376070	          0.57966905	          0.48132822	          0.55226972	          0.25032944	          0.62890386	          0.22939613	
          0.14385555	        -10.64683726	          0.18920559	          1.08527145	         16.52745249	        -33.46189985	          3.39856516	         14.36500143	        -32.97164103	          3.28315276	         -1.29685582	        -53.57866591	        -53.57866500	          0.66970179	          0.65393789	          0.50568639	          0.30233474	          0.15771566	          0.14144188	          0.55536725	          0.67244549	          0.06023638	          0.12252674	          0.32062507	          0.31582859	          0.53739232	          0.53171029	          0.56556981	          0.32915660	          0.65498165	          0.18377968	
          0.14662201	        -10.66575078	          0.18964114	          1.08536991	         16.96940288	        -33.79630631	          3.41232261	         15.84742930	        -33.67223146	          3.55124093	         -1.38885627	        -53.36126014	        -53.36125909	          0.68886794	          0.63899676	          0.54554986	          0.26768932	          0.14289202	          0.14082606	          0.51917174	          0.63057118	          0.05677198	          0.11458783	          0.29176580	          0.30329093	          0.51245685	          0.56302764	          0.52807040	          0.39621875	          0.67423080	          0.14519750	
          0.14938846	        -10.67598648	          0.19004808	          1.08592200	         17.40177573	        -34.05324198	          3.36113493	         16.49279900	        -33.85276654	          3.67624044	         -1.48296843	        -53.16942263	        -53.16942140	          0.70484673	          0.62342814	          0.57864523	          0.23613607	          0.13103870	          0.13895495	          0.47817770	          0.57827304	          0.05822335	          0.11408621	          0.27574558	          0.27663863	          0.52569906	          0.58651307	          0.47976139	          0.45332649	          0.69055718	          0.11112435	
          0.15215491	        -10.68625485	          0.19043778	          1.08642927	         17.82408474	        -34.31546017	          3.27500265	         16.72723467	        -33.79391012	          3.70632353	         -1.57312946	        -52.96857693	        -52.96857564	          0.71791431	          0.60596414	          0.60684287	          0.20649590	          0.12279308	          0.13985835	          0.43506093	          0.52488304	          0.06163096	          0.11485435	          0.27918415	          0.24496521	          0.54552675	          0.60542388	          0.43050197	          0.50174151	          0.70440035	          0.08099872	
          0.15492137	        -10.69774148	          0.19081798	          1.08691394	         18.17019820	        -34.54972109	          3.15541475	         16.83539812	        -33.67676725	          3.68205210	         -1.65847239	        -52.76021935	        -52.76021801	          0.72790489	          0.58654104	          0.63063822	          0.17908419	          0.11687527	          0.14812654	          0.39112654	          0.47185858	          0.06966693	          0.11409551	          0.31436355	          0.21125608	          0.56569463	          0.62178504	          0.38235031	          0.54231714	          0.71654516	          0.05718947	
          0.15768782	        -10.70668456	          0.19119474	          1.08741615	         18.51098912	        -34.78926661	          3.04193256	         16.87565571	        -33.49960305	          3.60936224	         -1.74045271	        -52.54619650	        -52.54619506	          0.73407815	          0.56590241	          0.65028340	          0.15470052	          0.11337491	          0.15952927	          0.34712734	          0.41971391	          0.12012020	          0.11125344	          0.35545212	          0.17665510	          0.57535047	          0.63681660	          0.33592637	          0.57461239	          0.72714739	          0.05479993	
          0.16045427	        -10.71329908	          0.19157545	          1.08788039	         18.82732376	        -35.03532983	          2.93655641	         16.85173982	        -33.30447920	          3.49202602	         -1.81976267	        -52.33353824	        -52.33353675	          0.73726968	          0.54480894	          0.66599060	          0.13492145	          0.11286441	          0.16554878	          0.30383608	          0.36844470	          0.20100440	          0.10540378	          0.38925638	          0.14335920	          0.56180024	          0.65130983	          0.29143520	          0.58871217	          0.72129412	          0.05415620	
          0.16322073	        -10.71786866	          0.19196821	          1.08833331	         19.12474110	        -35.29231995	          2.87208487	         16.79249990	        -33.10826864	          3.34741577	         -1.89592966	        -52.13190814	        -52.13190652	          0.73853583	          0.52346658	          0.67773439	          0.12190008	          0.11302604	          0.16634315	          0.26172253	          0.31841281	          0.27278062	          0.09752493	          0.40026101	          0.11314512	          0.53410956	          0.66544100	          0.24892820	          0.54501408	          0.66624722	          0.05333855	
          0.16598718	        -10.72246781	          0.19238167	          1.08873617	         19.35621724	        -35.54150114	          2.84280630	         16.72995648	        -32.93498248	          3.18077573	         -1.96869878	        -51.94073627	        -51.94073464	          0.73823166	          0.50234086	          0.68563556	          0.11373979	          0.11212410	          0.16246812	          0.22104262	          0.27018370	          0.31954304	          0.09004811	          0.38855569	          0.09440946	          0.49889618	          0.67848444	          0.20825927	          0.49245550	          0.61052425	          0.05275358	
          0.16875363	        -10.72545506	          0.19282521	          1.08906069	         19.53695920	        -35.77295952	          2.86782890	         16.69405845	        -32.82783119	          3.01177554	         -2.03654208	        -51.76171121	        -51.76170949	          0.73618594	          0.48232110	          0.68947269	          0.10888655	          0.10901172	          0.15297466	          0.18210152	          0.22440044	          0.30121882	          0.08401997	          0.36528585	          0.08105719	          0.46099087	          0.68970453	          0.16995495	          0.43950992	          0.55028140	          0.05226928	
          0.17152008	        -10.72849770	          0.19330814	          1.08924923	         19.69845594	        -36.00258818	          2.96155194	         16.65007566	        -32.75404402	          2.85124317	         -2.09782552	        -51.60557500	        -51.60557320	          0.73112606	          0.46392131	          0.68888838	          0.10645717	          0.10313769	          0.13226537	          0.14524908	          0.18605499	          0.26780230	          0.07866989	          0.33580702	          0.07247958	          0.42247427	          0.69874451	          0.13809888	          0.38786415	          0.49260085	          0.05168006	
          0.17428654	        -10.73530515	          0.19383891	          1.08934322	         19.79671833	        -36.24105286	          3.10693152	         16.53586002	        -32.65764182	          2.69634095	         -2.15118251	        -51.47132886	        -51.47132706	          0.71028792	          0.44623944	          0.68087116	          0.10698976	          0.09419230	          0.10132834	          0.11117585	          0.26292134	          0.22869960	          0.07210064	          0.30321063	          0.06717615	          0.38408311	          0.70524757	          0.21688043	          0.33791426	          0.43721244	          0.05088213	
          0.17705299	        -10.74656009	          0.19442604	          1.08924568	         19.87193672	        -36.48946421	          3.24440482	         16.23578574	        -32.53928757	          2.54198088	         -2.19681699	        -51.36524291	        -51.36524115	          0.66384665	          0.42379960	          0.65439541	          0.10635804	          0.08492863	          0.07522362	          0.08352617	          0.34110624	          0.18808614	          0.06661320	          0.26932257	          0.06928541	          0.34644979	          0.70935285	          0.29982948	          0.28972386	          0.38404042	          0.07978394	
          0.17981944	        -10.76186380	          0.19507656	          1.08892341	         20.02588641	        -36.85236278	          3.39035328	         15.30760754	        -32.07161610	          2.32546537	         -2.23660885	        -51.30007205	        -51.30007033	          0.61181611	          0.39337869	          0.62070280	          0.10754218	          0.08108781	          0.06999935	          0.08699971	          0.40899222	          0.14784156	          0.07376942	          0.23553193	          0.11953104	          0.31029113	          0.71281881	          0.36864890	          0.24320205	          0.33265233	          0.19319645	
